<?xml version="1.0" encoding="utf-8"?>
<!-- Generator: Adobe Illustrator 16.0.0, SVG Export Plug-In . SVG Version: 6.00 Build 0)  -->
<!DOCTYPE svg PUBLIC "-//W3C//DTD SVG 1.1//EN" "http://www.w3.org/Graphics/SVG/1.1/DTD/svg11.dtd">
<svg version="1.1" id="Layer_1" xmlns="http://www.w3.org/2000/svg" xmlns:xlink="http://www.w3.org/1999/xlink" x="0px" y="0px"
	 width="900px" height="1000px" viewBox="0 0 900 1000" enable-background="new 0 0 900 1000" xml:space="preserve">
<g>
	<path opacity="0.3" fill="#4D4B4C" d="M201.403,402.701c-4.859-11.533-8.167-19.701-8.167-19.701
		c-15.417-22.5-19.872-184-19.872-184h-54.819c0,19-6.167,153-6.167,153s40.429,80,40.429,129v520h33.577l4.111-570
		C190.496,431,193.441,419.544,201.403,402.701z"/>
	<path opacity="0.3" fill="#4D4B4C" d="M112.379,352c-25.354-38-46.596-111-46.596-111C53.449,200,44.541,42,44.541,42H0v948
		c0,11,13.02,11,13.02,11h24.668h115.12V481C152.808,432,112.379,352,112.379,352z"/>
	<path opacity="0.3" fill="#4D4B4C" d="M430.998,998.871h-68.39l4.386-608.045c0,0,3.94-15.332,14.935-36.908
		C367.366,338.079,346.044,294,346.044,294c-12.334-42-9.593-205-9.593-205H276.15c0.685,23-10.279,186-10.279,186
		c-0.685,44-20.557,64-20.557,64c-21.733,22.508-35.573,46.06-43.912,63.701C193.441,419.544,190.496,431,190.496,431l-4.111,570
		h58.931h185.699L430.998,998.871z"/>
	<path opacity="0.3" fill="#4D4B4C" d="M706.805,492.625c-1.788-59.557-36.375-93.059-36.375-93.059
		c-12.521-11.168-33.988-58.628-33.988-58.628c-10.732-39.085-8.348-190.772-8.348-190.772H575.62
		c0.466,16.747-5.272,113.247-7.792,154.448c2.394,3.03,4.68,5.537,6.762,7.274c0,0,42.396,38.403,44.589,106.674l4.387,580.309
		h86.817L706.805,492.625z"/>
	<path opacity="0.3" fill="#4D4B4C" d="M619.179,418.562c-2.192-68.271-44.589-106.674-44.589-106.674
		c-2.082-1.737-4.368-4.245-6.762-7.274c-15.247-19.294-34.903-59.931-34.903-59.931C519.768,199.879,522.69,26,522.69,26h-64.324
		c0.73,24.535-10.966,198.415-10.966,198.415c-0.73,46.937-21.929,68.271-21.929,68.271c-20.52,21.252-34.446,43.379-43.543,61.231
		c-10.994,21.576-14.935,36.908-14.935,36.908l-4.386,608.045h68.39h66.507h126.061L619.179,418.562z"/>
</g>
</svg>
